<?xml version="1.0" encoding="UTF-8" standalone="no"?>
<svg
   xmlns:dc="http://purl.org/dc/elements/1.1/"
   xmlns:cc="http://creativecommons.org/ns#"
   xmlns:rdf="http://www.w3.org/1999/02/22-rdf-syntax-ns#"
   xmlns:svg="http://www.w3.org/2000/svg"
   xmlns="http://www.w3.org/2000/svg"
   xmlns:sodipodi="http://sodipodi.sourceforge.net/DTD/sodipodi-0.dtd"
   xmlns:inkscape="http://www.inkscape.org/namespaces/inkscape"
   sodipodi:docname="playOptions.svg"
   inkscape:version="1.0 (4035a4fb49, 2020-05-01)"
   shape-rendering="crispEdges"
   id="svg17"
   version="1.1"
   viewBox="0 0 40 40"
   height="40mm"
   width="40mm">
  <defs
     id="defs11" />
  <sodipodi:namedview
     inkscape:window-maximized="1"
     inkscape:window-y="-8"
     inkscape:window-x="1912"
     inkscape:window-height="1377"
     inkscape:window-width="2560"
     inkscape:snap-object-midpoints="true"
     inkscape:pagecheckerboard="true"
     showgrid="false"
     inkscape:document-rotation="0"
     inkscape:current-layer="layer1"
     inkscape:document-units="mm"
     inkscape:cy="99.369805"
     inkscape:cx="105.97733"
     inkscape:zoom="5.6"
     inkscape:pageshadow="2"
     inkscape:pageopacity="0.0"
     borderopacity="1.0"
     bordercolor="#666666"
     pagecolor="#ffffff"
     id="base" />
  <metadata
     id="metadata14">
    <rdf:RDF>
      <cc:Work
         rdf:about="">
        <dc:format>image/svg+xml</dc:format>
        <dc:type
           rdf:resource="http://purl.org/dc/dcmitype/StillImage" />
        <dc:title></dc:title>
      </cc:Work>
    </rdf:RDF>
  </metadata>
  <g
     id="layer1"
     inkscape:groupmode="layer"
     inkscape:label="Layer 1">
    <path
       id="path51-8"
       style="fill:#ffffff;stroke:#000000;stroke-width:0.6;stroke-miterlimit:4;stroke-dasharray:none;stroke-opacity:1"
       d="m 21.304044,0.92238434 -6.332229,0.028348 -1.093178,4.05577796 A 13.564437,13.564437 0 0 0 12.039455,5.7758287 L 8.8670399,3.7028902 4.1370837,7.9130362 6.0487244,11.776011 6.0682584,11.759001 A 13.564437,13.564437 0 0 0 5.3833693,13.36317 l -4.1276063,1.148624 0.042215,6.332231 3.9234629,1.04844 a 13.564437,13.564437 0 0 0 0.7667985,1.933695 l -1.851154,3.740735 4.7299555,4.210146 2.9468501,-1.925502 a 13.564437,13.564437 0 0 0 2.067898,0.887143 l 1.095697,4.065858 6.332231,0.0095 1.122159,-4.062076 a 13.564437,13.564437 0 0 0 1.905338,-0.795158 l 2.784921,1.820281 4.729956,-4.210145 -1.671583,-3.377821 a 13.564437,13.564437 0 0 0 0.953929,-2.303545 L 35.05412,20.793029 35.00813,14.4608 30.978186,13.385896 A 13.564437,13.564437 0 0 0 30.112459,11.428214 L 31.852091,7.9130382 27.122135,3.7028927 24.107238,5.67313 A 13.564437,13.564437 0 0 0 22.426835,4.9907609 Z M 18.146751,9.5146857 a 8.3536463,8.3536463 0 0 1 0.0082,0 8.3536463,8.3536463 0 0 1 8.353505,8.3535043 8.3536463,8.3536463 0 0 1 -8.353505,8.353503 8.3536463,8.3536463 0 0 1 -8.3535033,-8.353504 8.3536463,8.3536463 0 0 1 8.3453133,-8.3535033 z" />
    <path
       sodipodi:type="star"
       style="fill:#ffffff;stroke:#000000;stroke-width:0.839484;stroke-miterlimit:4;stroke-dasharray:none;stroke-opacity:1"
       id="path45"
       sodipodi:sides="3"
       sodipodi:cx="-165.61995"
       sodipodi:cy="-127.6582"
       sodipodi:r1="17.472967"
       sodipodi:r2="8.7364845"
       sodipodi:arg1="1.4635175"
       sodipodi:arg2="2.5107151"
       inkscape:flatsided="false"
       inkscape:rounded="0"
       inkscape:randomized="0"
       d="m -163.74906,-110.28569 -8.92569,-12.21927 -8.92568,-12.21927 15.04504,-1.62023 15.04504,-1.62024 -6.11936,13.83951 z"
       inkscape:transform-center-x="-2.5421503"
       inkscape:transform-center-y="2.2551551"
       transform="matrix(-0.5866574,0.32226053,-0.25965086,-0.72811819,-102.29049,-12.835028)" />
  </g>
</svg>
